<svg width="17" height="14" viewBox="0 0 17 14" fill="none" xmlns="http://www.w3.org/2000/svg">
<g clip-path="url(#clip0_1_30)">
<path d="M10.6599 0.620755L16.26 6.21968C16.3359 6.29196 16.3963 6.3789 16.4376 6.47522C16.4788 6.57155 16.5001 6.67525 16.5001 6.78005C16.5001 6.88484 16.4788 6.98855 16.4376 7.08487C16.3963 7.1812 16.3359 7.26813 16.26 7.34042L10.6599 12.9393C10.5877 13.0152 10.5009 13.0756 10.4047 13.1168C10.3084 13.1581 10.2048 13.1794 10.1001 13.1794C9.99542 13.1794 9.89182 13.1581 9.79559 13.1168C9.69937 13.0756 9.61253 13.0152 9.54035 12.9393C9.46451 12.8672 9.40412 12.7803 9.36286 12.6841C9.32161 12.5879 9.30033 12.4843 9.30033 12.3796C9.30033 12.2749 9.32161 12.1713 9.36286 12.075C9.40412 11.9788 9.46451 11.892 9.54035 11.8198L13.7797 7.58041H1.30036C0.820384 7.58041 0.5 7.26002 0.5 6.78005C0.5 6.30007 0.820384 5.97969 1.30036 5.97969H13.7797L9.54035 1.7403C9.46211 1.66988 9.40013 1.58329 9.35869 1.48652C9.31725 1.38976 9.29734 1.28515 9.30036 1.17993C9.30036 0.939939 9.37956 0.780347 9.54035 0.620755C9.61253 0.544914 9.69937 0.484532 9.79559 0.443272C9.89182 0.402013 9.99542 0.380737 10.1001 0.380737C10.2048 0.380737 10.3084 0.402013 10.4047 0.443272C10.5009 0.484532 10.5877 0.544914 10.6599 0.620755Z" fill="#00AEEF"/>
</g>
<defs>
<clipPath id="clip0_1_30">
<rect width="16" height="13" fill="white" transform="translate(0.5 0.280029)"/>
</clipPath>
</defs>
</svg>
